# xmcd
#
# Track frame offsets: 
#        150
#        20013
#        36545
#        51507
#        72531
#        87063
#        101368
#        124983
#        141066
#        160257
#
# Disc length: 2306 seconds
#
# Revision: 0
# Processed by: cddbd v1.5.1PL2 Copyright (c) Steve Scherf et al.
# Submitted via: ExactAudioCopy v0.95b3
#
DISCID=8f09000a
DTITLE=THE CHARLIE DANIELS BAND - MIDNIGHT WIND
DYEAR=1977
DGENRE=Acid Punk
TTITLE0=MIDNIGHT WIND
TTITLE1=SUGAR HILL SATURDAY NIGHT
TTITLE2=HEAVEN CAN BE ANYWHERE (TWIN PINES THEME)
TTITLE3=MARIA THERESA
TTITLE4=INDIAN MAN
TTITLE5=GRAPES OF WRATH
TTITLE6=REDNECK FIDDLIN' MAN
TTITLE7=ODE TO SWEET SMOKY
TTITLE8=GOOD OLE BOY
TTITLE9=BLACK BAYOU
EXTD=
EXTT0=
EXTT1=
EXTT2=
EXTT3=
EXTT4=
EXTT5=
EXTT6=
EXTT7=
EXTT8=
EXTT9=
PLAYORDER=
